<svg xmlns="http://www.w3.org/2000/svg" xmlns:xlink="http://www.w3.org/1999/xlink" width="500" zoomAndPan="magnify" viewBox="0 0 375 374.999991" height="500" preserveAspectRatio="xMidYMid meet" version="1.0"><defs><g/></defs><path stroke-linecap="butt" transform="matrix(3.588699, 0, 0, 3.588699, 104.349936, 82.12498)" fill="none" stroke-linejoin="miter" d="M 9.31572 39.000473 L 14.503446 9.63311 L 22.215372 9.63311 L 19.712942 22.901759 L 38.231361 9.63311 L 47.746909 9.63311 L 32.058555 20.993643 L 43.337451 39.000473 L 34.519622 39.000473 L 25.783431 25.219147 L 18.358865 30.550553 L 17.047239 39.000473 Z M 9.31572 39.000473 " stroke="#ffffff" stroke-width="0.7875" stroke-opacity="1" stroke-miterlimit="4"/><g fill="#0f0e3b" fill-opacity="1"><g transform="translate(124.312074, 222.08424)"><g><path d="M 13.46875 0 L 32.09375 -105.390625 L 59.75 -105.390625 L 50.78125 -57.765625 L 117.234375 -105.390625 L 151.375 -105.390625 L 95.078125 -64.609375 L 135.5625 0 L 103.90625 0 L 72.5625 -49.453125 L 45.921875 -30.328125 L 41.21875 0 Z M 13.46875 0 "/></g></g></g><path stroke-linecap="butt" transform="matrix(0.795935, 0, 0, 0.795935, 104.349936, 74.34732)" fill="none" stroke-linejoin="miter" d="M 40.913033 193.998805 L 65.741332 53.485064 L 139.333018 53.485064 C 152.873495 53.485064 165.142866 54.908311 176.131315 57.754805 C 187.119763 60.601299 196.361053 64.885763 203.850277 70.608197 C 211.339501 76.330632 216.688947 83.525391 219.893706 92.197382 C 223.098466 100.864466 223.687396 110.984243 221.660496 122.566529 C 219.761197 133.098557 216.50736 142.334939 211.898984 150.285491 C 207.285701 158.231136 201.563266 164.989105 194.726773 170.549584 C 187.89028 176.110063 180.136037 180.60556 171.468954 184.040984 C 162.80187 187.476408 153.447702 189.994083 143.406449 191.594009 C 133.365196 193.198842 122.847891 193.998805 111.859443 193.998805 Z M 82.226459 166.427075 L 120.492172 166.427075 C 131.485528 166.427075 141.345195 164.871319 150.076079 161.764714 C 158.811871 158.65811 166.00663 153.966302 171.665264 147.684385 C 177.323897 141.407374 181.004709 133.520623 182.70279 124.038853 C 185.191018 109.840737 182.575188 99.127123 174.8553 91.902917 C 167.135412 84.673804 155.101613 81.056794 138.744088 81.056794 L 97.337416 81.056794 Z M 82.226459 166.427075 " stroke="#ffffff" stroke-width="3.768131" stroke-opacity="1" stroke-miterlimit="4"/><g fill="#d0d1b3" fill-opacity="1"><g transform="translate(122.544519, 228.758763)"><g><path d="M 14.375 0 L 34.125 -111.84375 L 92.703125 -111.84375 C 103.484375 -111.84375 113.242188 -110.707031 121.984375 -108.4375 C 130.734375 -106.175781 138.085938 -102.765625 144.046875 -98.203125 C 150.015625 -93.648438 154.273438 -87.925781 156.828125 -81.03125 C 159.378906 -74.132812 159.847656 -66.078125 158.234375 -56.859375 C 156.722656 -48.472656 154.128906 -41.117188 150.453125 -34.796875 C 146.785156 -28.472656 142.234375 -23.097656 136.796875 -18.671875 C 131.359375 -14.242188 125.1875 -10.660156 118.28125 -7.921875 C 111.382812 -5.191406 103.9375 -3.1875 95.9375 -1.90625 C 87.945312 -0.632812 79.582031 0 70.84375 0 Z M 47.25 -21.953125 L 77.71875 -21.953125 C 86.457031 -21.953125 94.300781 -23.1875 101.25 -25.65625 C 108.207031 -28.125 113.9375 -31.859375 118.4375 -36.859375 C 122.945312 -41.859375 125.878906 -48.132812 127.234375 -55.6875 C 129.210938 -66.988281 127.128906 -75.515625 120.984375 -81.265625 C 114.835938 -87.015625 105.253906 -89.890625 92.234375 -89.890625 L 59.28125 -89.890625 Z M 47.25 -21.953125 "/></g></g></g><g fill="#000000" fill-opacity="1"><g transform="translate(115.02875, 271.902462)"><g><path d="M -0.0625 1.671875 L -0.0625 0.828125 L 9.859375 0.828125 L 9.859375 1.671875 Z M -0.0625 1.671875 "/></g></g></g><g fill="#000000" fill-opacity="1"><g transform="translate(128.84744, 271.902462)"><g><path d="M 6.984375 -9.828125 L 4.734375 -9.828125 L 4.734375 -1.375 L 6.984375 -1.375 L 6.984375 0 L 0.71875 0 L 0.71875 -1.375 L 2.953125 -1.375 L 2.953125 -9.828125 L 0.71875 -9.828125 L 0.71875 -11.1875 L 6.984375 -11.1875 Z M 6.984375 -9.828125 "/></g></g></g><g fill="#000000" fill-opacity="1"><g transform="translate(140.549454, 271.902462)"><g><path d="M 5.09375 0 L 5.09375 -9.71875 L 0.171875 -9.71875 L 0.171875 -11.1875 L 11.796875 -11.1875 L 11.796875 -9.71875 L 6.875 -9.71875 L 6.875 0 Z M 5.09375 0 "/></g></g></g><g fill="#000000" fill-opacity="1"><g transform="translate(156.53949, 271.902462)"><g><path d="M 6.265625 0.328125 C 5.554688 0.328125 4.878906 0.253906 4.234375 0.109375 C 3.585938 -0.0234375 3.003906 -0.234375 2.484375 -0.515625 C 1.960938 -0.796875 1.519531 -1.144531 1.15625 -1.5625 C 0.800781 -1.988281 0.554688 -2.484375 0.421875 -3.046875 L 1.6875 -3.65625 C 1.695312 -3.644531 1.707031 -3.632812 1.71875 -3.625 C 1.863281 -3.082031 2.140625 -2.625 2.546875 -2.25 C 2.960938 -1.875 3.484375 -1.585938 4.109375 -1.390625 C 4.734375 -1.203125 5.4375 -1.109375 6.21875 -1.109375 C 6.820312 -1.109375 7.335938 -1.160156 7.765625 -1.265625 C 8.191406 -1.378906 8.535156 -1.523438 8.796875 -1.703125 C 9.054688 -1.890625 9.242188 -2.09375 9.359375 -2.3125 C 9.484375 -2.539062 9.546875 -2.765625 9.546875 -2.984375 C 9.546875 -3.265625 9.488281 -3.492188 9.375 -3.671875 C 9.269531 -3.859375 9.101562 -4.015625 8.875 -4.140625 C 8.644531 -4.265625 8.351562 -4.375 8 -4.46875 C 7.644531 -4.5625 7.226562 -4.664062 6.75 -4.78125 L 4.640625 -5.265625 C 3.828125 -5.441406 3.144531 -5.664062 2.59375 -5.9375 C 2.050781 -6.21875 1.640625 -6.5625 1.359375 -6.96875 C 1.085938 -7.382812 0.953125 -7.890625 0.953125 -8.484375 C 0.953125 -8.960938 1.066406 -9.390625 1.296875 -9.765625 C 1.535156 -10.140625 1.867188 -10.457031 2.296875 -10.71875 C 2.722656 -10.976562 3.234375 -11.175781 3.828125 -11.3125 C 4.421875 -11.445312 5.078125 -11.515625 5.796875 -11.515625 C 7.078125 -11.515625 8.171875 -11.28125 9.078125 -10.8125 C 9.984375 -10.34375 10.664062 -9.613281 11.125 -8.625 L 9.796875 -8.09375 C 9.785156 -8.09375 9.769531 -8.09375 9.75 -8.09375 C 9.738281 -8.09375 9.726562 -8.09375 9.71875 -8.09375 C 9.519531 -8.539062 9.269531 -8.898438 8.96875 -9.171875 C 8.664062 -9.441406 8.332031 -9.640625 7.96875 -9.765625 C 7.613281 -9.898438 7.25 -9.988281 6.875 -10.03125 C 6.5 -10.082031 6.144531 -10.109375 5.8125 -10.109375 C 5.101562 -10.109375 4.515625 -10.035156 4.046875 -9.890625 C 3.578125 -9.753906 3.222656 -9.5625 2.984375 -9.3125 C 2.753906 -9.070312 2.640625 -8.796875 2.640625 -8.484375 C 2.640625 -8.191406 2.707031 -7.945312 2.84375 -7.75 C 2.976562 -7.550781 3.15625 -7.390625 3.375 -7.265625 C 3.601562 -7.140625 3.84375 -7.035156 4.09375 -6.953125 C 4.351562 -6.878906 4.609375 -6.816406 4.859375 -6.765625 L 7.546875 -6.109375 C 8.148438 -5.972656 8.6875 -5.828125 9.15625 -5.671875 C 9.625 -5.523438 10.015625 -5.335938 10.328125 -5.109375 C 10.648438 -4.878906 10.894531 -4.597656 11.0625 -4.265625 C 11.226562 -3.941406 11.3125 -3.539062 11.3125 -3.0625 C 11.3125 -2.539062 11.1875 -2.070312 10.9375 -1.65625 C 10.6875 -1.238281 10.332031 -0.878906 9.875 -0.578125 C 9.425781 -0.285156 8.894531 -0.0625 8.28125 0.09375 C 7.664062 0.25 6.992188 0.328125 6.265625 0.328125 Z M 6.265625 0.328125 "/></g></g></g><g fill="#000000" fill-opacity="1"><g transform="translate(172.506085, 271.902462)"><g><path d="M -0.0625 1.671875 L -0.0625 0.828125 L 9.859375 0.828125 L 9.859375 1.671875 Z M -0.0625 1.671875 "/></g></g></g><g fill="#000000" fill-opacity="1"><g transform="translate(186.324773, 271.902462)"><g><path d="M -0.0625 1.671875 L -0.0625 0.828125 L 9.859375 0.828125 L 9.859375 1.671875 Z M -0.0625 1.671875 "/></g></g></g><g fill="#000000" fill-opacity="1"><g transform="translate(200.143461, 271.902462)"><g><path d="M 1.625 0 L 1.625 -11.1875 L 7.015625 -11.1875 C 8.035156 -11.1875 8.960938 -11.066406 9.796875 -10.828125 C 10.640625 -10.597656 11.367188 -10.25 11.984375 -9.78125 C 12.597656 -9.3125 13.070312 -8.726562 13.40625 -8.03125 C 13.738281 -7.34375 13.90625 -6.550781 13.90625 -5.65625 C 13.90625 -4.695312 13.726562 -3.863281 13.375 -3.15625 C 13.03125 -2.445312 12.539062 -1.859375 11.90625 -1.390625 C 11.28125 -0.921875 10.535156 -0.570312 9.671875 -0.34375 C 8.804688 -0.113281 7.859375 0 6.828125 0 Z M 3.390625 -1.40625 L 7.015625 -1.40625 C 8.046875 -1.40625 8.9375 -1.5625 9.6875 -1.875 C 10.445312 -2.195312 11.03125 -2.664062 11.4375 -3.28125 C 11.84375 -3.90625 12.046875 -4.671875 12.046875 -5.578125 C 12.046875 -6.492188 11.847656 -7.265625 11.453125 -7.890625 C 11.054688 -8.515625 10.492188 -8.988281 9.765625 -9.3125 C 9.035156 -9.632812 8.164062 -9.796875 7.15625 -9.796875 L 3.390625 -9.796875 Z M 3.390625 -1.40625 "/></g></g></g><g fill="#000000" fill-opacity="1"><g transform="translate(218.65631, 271.902462)"><g><path d="M 1.625 0 L 1.625 -11.1875 L 3.421875 -11.1875 L 3.390625 -5.28125 L 10.6875 -11.1875 L 12.953125 -11.1875 L 7.703125 -6.921875 L 13.375 0 L 11.25 0 L 6.40625 -5.890625 L 3.390625 -3.46875 L 3.421875 0 Z M 1.625 0 "/></g></g></g><g fill="#000000" fill-opacity="1"><g transform="translate(236.356863, 271.902462)"><g><path d="M -0.0625 1.671875 L -0.0625 0.828125 L 9.859375 0.828125 L 9.859375 1.671875 Z M -0.0625 1.671875 "/></g></g></g><g fill="#000000" fill-opacity="1"><g transform="translate(250.175558, 271.902462)"><g><path d="M -0.0625 1.671875 L -0.0625 0.828125 L 9.859375 0.828125 L 9.859375 1.671875 Z M -0.0625 1.671875 "/></g></g></g></svg>